<svg preserveAspectRatio="none" width="100%" height="100%" overflow="visible" style="display: block;" viewBox="0 0 24 24" fill="none" xmlns="http://www.w3.org/2000/svg">
<g id="Depth 7, Frame 0" clip-path="url(#clip0_76_263)">
<path id="Vector - 0" fill-rule="evenodd" clip-rule="evenodd" d="M20.9484 3.75656C20.9263 3.37677 20.6232 3.07374 20.2434 3.05156C13.1062 2.6325 7.38938 4.78125 4.95188 8.8125C4.10697 10.1915 3.69062 11.7903 3.75563 13.4062C3.80906 14.8987 4.24406 16.4062 5.04844 17.8922L3.21937 19.7203C3.0298 19.9099 2.95576 20.1862 3.02515 20.4452C3.09454 20.7041 3.29681 20.9064 3.55578 20.9758C3.81474 21.0452 4.09105 20.9711 4.28062 20.7816L6.10875 18.9525C7.59375 19.7559 9.10219 20.1909 10.5938 20.2444C10.6981 20.2481 10.8022 20.25 10.9059 20.25C12.4169 20.254 13.8993 19.8379 15.1875 19.0481C19.2188 16.6106 21.3684 10.8947 20.9484 3.75656V3.75656ZM14.4141 17.7656C12.2812 19.0575 9.75656 19.0781 7.2225 17.8378L15.5316 9.52969C15.8246 9.23663 15.8246 8.76149 15.5316 8.46844C15.2385 8.17538 14.7634 8.17538 14.4703 8.46844L6.16219 16.7812C4.92563 14.25 4.94344 11.7187 6.23438 9.58969C8.30531 6.17062 13.2281 4.29844 19.4822 4.52156C19.7062 10.7709 17.8331 15.6947 14.4141 17.7656V17.7656Z" fill="var(--fill-0, #121714)"/>
<g id="Depth 8, Frame 0">
</g>
</g>
<defs>
<clipPath id="clip0_76_263">
<rect width="24" height="24" fill="white"/>
</clipPath>
</defs>
</svg>
