<svg preserveAspectRatio="none" width="100%" height="100%" overflow="visible" style="display: block;" viewBox="0 0 15 15" fill="none" xmlns="http://www.w3.org/2000/svg">
<path id="Vector - 0" fill-rule="evenodd" clip-rule="evenodd" d="M13.9827 4.15883L10.8412 1.01656C10.6302 0.805528 10.344 0.686967 10.0456 0.686967C9.74717 0.686967 9.46099 0.805528 9.25 1.01656L0.579766 9.6875C0.36783 9.89775 0.249046 10.1842 0.25 10.4827V13.625C0.25 14.2463 0.75368 14.75 1.375 14.75H4.51727C4.8158 14.751 5.10225 14.6322 5.3125 14.4202L13.9827 5.75C14.1938 5.53901 14.3123 5.25283 14.3123 4.95441C14.3123 4.656 14.1938 4.36981 13.9827 4.15883V4.15883ZM4.51727 13.625H1.375V10.4827L7.5625 4.29523L10.7048 7.4375L4.51727 13.625ZM11.5 6.64156L8.35773 3.5L10.0452 1.8125L13.1875 4.95406L11.5 6.64156Z" fill="var(--fill-0, #121714)"/>
</svg>
