<svg preserveAspectRatio="none" width="100%" height="100%" overflow="visible" style="display: block;" viewBox="0 0 16 16" fill="none" xmlns="http://www.w3.org/2000/svg">
<path id="Vector - 0" fill-rule="evenodd" clip-rule="evenodd" d="M14.25 0.5H1.75C1.05964 0.5 0.5 1.05964 0.5 1.75V14.25C0.5 14.9404 1.05964 15.5 1.75 15.5H14.25C14.9404 15.5 15.5 14.9404 15.5 14.25V1.75C15.5 1.05964 14.9404 0.5 14.25 0.5V0.5ZM12.375 8.625H8.625V12.375C8.625 12.7202 8.34518 13 8 13C7.65482 13 7.375 12.7202 7.375 12.375V8.625H3.625C3.27982 8.625 3 8.34518 3 8C3 7.65482 3.27982 7.375 3.625 7.375H7.375V3.625C7.375 3.27982 7.65482 3 8 3C8.34518 3 8.625 3.27982 8.625 3.625V7.375H12.375C12.7202 7.375 13 7.65482 13 8C13 8.34518 12.7202 8.625 12.375 8.625V8.625Z" fill="var(--fill-0, #121714)"/>
</svg>
