<svg preserveAspectRatio="none" width="100%" height="100%" overflow="visible" style="display: block;" viewBox="0 0 24 24" fill="none" xmlns="http://www.w3.org/2000/svg">
<g id="Depth 6, Frame 0" clip-path="url(#clip0_76_255)">
<path id="Vector - 0" fill-rule="evenodd" clip-rule="evenodd" d="M20.25 6.75H16.9613C16.9978 6.71906 17.0353 6.68906 17.0709 6.65625C17.6465 6.14489 17.9832 5.41693 18 4.64719C18.0249 3.80528 17.7014 2.99038 17.106 2.39472C16.5105 1.79905 15.6957 1.47536 14.8538 1.5C14.0837 1.51659 13.3553 1.85324 12.8438 2.42906C12.4936 2.8349 12.2089 3.29291 12 3.78656C11.7911 3.29291 11.5064 2.8349 11.1562 2.42906C10.6447 1.85324 9.91632 1.51659 9.14625 1.5C8.30434 1.47536 7.48954 1.79905 6.89405 2.39472C6.29856 2.99038 5.97511 3.80528 6 4.64719C6.01685 5.41693 6.35348 6.14489 6.92906 6.65625C6.96469 6.68719 7.00219 6.71719 7.03875 6.75H3.75C2.92157 6.75 2.25 7.42157 2.25 8.25V11.25C2.25 12.0784 2.92157 12.75 3.75 12.75V18.75C3.75 19.5784 4.42157 20.25 5.25 20.25H18.75C19.5784 20.25 20.25 19.5784 20.25 18.75V12.75C21.0784 12.75 21.75 12.0784 21.75 11.25V8.25C21.75 7.42157 21.0784 6.75 20.25 6.75V6.75ZM13.9688 3.42281C14.2088 3.1577 14.5486 3.00479 14.9062 3.00094H14.9522C15.3711 3.00356 15.7712 3.17471 16.0624 3.4758C16.3536 3.77688 16.5113 4.18253 16.5 4.60125C16.4961 4.95888 16.3432 5.29868 16.0781 5.53875C15.1884 6.32625 13.7119 6.60375 12.7969 6.70125C12.9094 5.70844 13.2188 4.26562 13.9688 3.42281V3.42281ZM7.96031 3.45656C8.25088 3.16602 8.64441 3.00194 9.05531 3H9.10125C9.45888 3.00386 9.79868 3.15677 10.0387 3.42188C10.8253 4.31063 11.1028 5.78437 11.2003 6.69562C10.2891 6.60187 8.81531 6.32062 7.92656 5.53406C7.66145 5.29399 7.50854 4.95419 7.50469 4.59656C7.49294 4.17073 7.65626 3.7587 7.95656 3.45656H7.96031ZM3.75 8.25H11.25V11.25H3.75V8.25ZM5.25 12.75H11.25V18.75H5.25V12.75ZM18.75 18.75H12.75V12.75H18.75V18.75ZM20.25 11.25H12.75V8.25H20.25V11.25V11.25Z" fill="var(--fill-0, #121714)"/>
<g id="Depth 7, Frame 0">
</g>
</g>
<defs>
<clipPath id="clip0_76_255">
<rect width="24" height="24" fill="white"/>
</clipPath>
</defs>
</svg>
