<svg preserveAspectRatio="none" width="100%" height="100%" overflow="visible" style="display: block;" viewBox="0 0 24 24" fill="none" xmlns="http://www.w3.org/2000/svg">
<g id="Depth 7, Frame 0" clip-path="url(#clip0_76_259)">
<path id="Vector - 0" fill-rule="evenodd" clip-rule="evenodd" d="M9 19.5C9 19.9142 8.66421 20.25 8.25 20.25H3.75C2.9464 20.2495 2.20406 19.8205 1.80247 19.1244C1.40088 18.4283 1.40101 17.5709 1.80281 16.875L5.0175 11.3203L3.70031 11.6719C3.44074 11.7412 3.16389 11.6668 2.97406 11.4767C2.78423 11.2865 2.71025 11.0096 2.78 10.7501C2.84974 10.4906 3.05261 10.2881 3.31219 10.2188L6.38438 9.39656C6.57658 9.34503 6.78138 9.372 6.95369 9.47152C7.12601 9.57104 7.25171 9.73496 7.30312 9.92719L8.12719 12.9994C8.17976 13.1925 8.15298 13.3986 8.05279 13.5718C7.95261 13.7451 7.78734 13.8711 7.59375 13.9219C7.53007 13.9385 7.46455 13.947 7.39875 13.9472C7.05954 13.9469 6.76277 13.7189 6.675 13.3912L6.31875 12.0647L3.10406 17.625C2.9704 17.8565 2.97006 18.1416 3.10316 18.3735C3.23626 18.6053 3.48269 18.7487 3.75 18.75H8.25C8.66421 18.75 9 19.0858 9 19.5V19.5ZM22.1934 16.875L20.0241 13.125C19.8084 12.7858 19.3638 12.6769 19.0158 12.878C18.6678 13.0792 18.5403 13.5189 18.7266 13.875L20.8959 17.625C21.0296 17.8565 21.0299 18.1416 20.8968 18.3735C20.7637 18.6053 20.5173 18.7487 20.25 18.75H13.8103L14.7797 17.7806C15.0727 17.4878 15.073 17.0129 14.7802 16.7198C14.4874 16.4268 14.0124 16.4266 13.7194 16.7194L11.4694 18.9694C11.3285 19.1101 11.2494 19.3009 11.2494 19.5C11.2494 19.6991 11.3285 19.8899 11.4694 20.0306L13.7194 22.2806C14.0124 22.5734 14.4874 22.5732 14.7802 22.2802C15.073 21.9871 15.0727 21.5122 14.7797 21.2194L13.8103 20.25H20.25C21.0536 20.2495 21.7959 19.8205 22.1975 19.1244C22.5991 18.4283 22.599 17.5709 22.1972 16.875H22.1934ZM12 3C12.2685 2.99731 12.5171 3.14102 12.6488 3.375L15.8634 8.92969L14.5434 8.57531C14.1489 8.48271 13.7522 8.72027 13.6475 9.11178C13.5428 9.5033 13.7681 9.90714 14.1562 10.0238L17.2294 10.8478C17.2927 10.8645 17.3579 10.873 17.4234 10.8731C17.7626 10.8728 18.0594 10.6448 18.1472 10.3172L18.9713 7.24312C19.0483 6.98185 18.9776 6.69936 18.7866 6.50516C18.5956 6.31096 18.3143 6.23558 18.0518 6.30826C17.7892 6.38093 17.5868 6.59022 17.5228 6.855L17.1666 8.18344L13.9472 2.625C13.5449 1.93018 12.8029 1.50237 12 1.50237C11.1971 1.50237 10.4551 1.93018 10.0528 2.625L7.88156 6.375C7.68757 6.73225 7.81351 7.17901 8.16553 7.38234C8.51755 7.58567 8.96747 7.47154 9.18 7.125L11.3512 3.375C11.4829 3.14102 11.7315 2.99731 12 3V3Z" fill="var(--fill-0, #121714)"/>
<g id="Depth 8, Frame 0">
</g>
</g>
<defs>
<clipPath id="clip0_76_259">
<rect width="24" height="24" fill="white"/>
</clipPath>
</defs>
</svg>
