<svg preserveAspectRatio="none" width="100%" height="100%" overflow="visible" style="display: block;" viewBox="0 0 24 24" fill="none" xmlns="http://www.w3.org/2000/svg">
<g id="Depth 7, Frame 0" clip-path="url(#clip0_76_251)">
<path id="Vector - 0" fill-rule="evenodd" clip-rule="evenodd" d="M22.2 17.6334L14.0016 3.39563V3.39563C13.5847 2.68586 12.8231 2.24994 12 2.24994C11.1769 2.24994 10.4153 2.68586 9.99844 3.39563L1.8 17.6334C1.39866 18.3204 1.39866 19.1703 1.8 19.8572C2.21179 20.5717 2.97693 21.0086 3.80156 21H20.1984C21.0224 21.0079 21.7867 20.5711 22.1981 19.8572C22.6 19.1706 22.6008 18.3207 22.2 17.6334V17.6334ZM20.8997 19.1063C20.7542 19.3545 20.4861 19.505 20.1984 19.5H3.80156C3.51387 19.505 3.24583 19.3545 3.10031 19.1063C2.96846 18.883 2.96846 18.6057 3.10031 18.3825L11.2987 4.14469C11.4471 3.89788 11.7139 3.7469 12.0019 3.7469C12.2898 3.7469 12.5567 3.89788 12.705 4.14469L20.9034 18.3825C21.0341 18.6064 21.0327 18.8837 20.8997 19.1063V19.1063ZM11.25 13.5V9.75C11.25 9.33579 11.5858 9 12 9C12.4142 9 12.75 9.33579 12.75 9.75V13.5C12.75 13.9142 12.4142 14.25 12 14.25C11.5858 14.25 11.25 13.9142 11.25 13.5V13.5ZM13.125 16.875C13.125 17.4963 12.6213 18 12 18C11.3787 18 10.875 17.4963 10.875 16.875C10.875 16.2537 11.3787 15.75 12 15.75C12.6213 15.75 13.125 16.2537 13.125 16.875V16.875Z" fill="var(--fill-0, #121714)"/>
<g id="Depth 8, Frame 0">
</g>
</g>
<defs>
<clipPath id="clip0_76_251">
<rect width="24" height="24" fill="white"/>
</clipPath>
</defs>
</svg>
